<svg xmlns="http://www.w3.org/2000/svg" version="1.1" xmlns:xlink="http://www.w3.org/1999/xlink" width="512" height="512" x="0" y="0" viewBox="0 0 512 512" style="enable-background:new 0 0 512 512" xml:space="preserve" class=""><g><path d="M97.934 171.738a8 8 0 0 1 4.924-10.186c94.871-33.038 179.892-79.271 253.021-137.548L342.12 24a8 8 0 0 1 .002-16h.002l36.115.009a7.998 7.998 0 0 1 7.839 9.582l-7.142 35.402a8.003 8.003 0 0 1-9.424 6.259 8 8 0 0 1-6.26-9.424l2.703-13.397c-74.568 59.445-161.208 106.58-257.837 140.23a7.993 7.993 0 0 1-10.184-4.923zm383.784 293.134a8 8 0 0 1-8 8h-81.161a8 8 0 0 1-8-8c0-70.886-57.67-128.557-128.557-128.557s-128.557 57.67-128.557 128.557a8 8 0 0 1-8 8H38.282a8 8 0 0 1-8-8c0-60.292 23.479-116.974 66.111-159.606a233.245 233.245 0 0 1 5.945-5.714 8.086 8.086 0 0 1-.104-1.233v-86.506a8 8 0 0 1 8-8h45.092a8 8 0 0 1 8 8v47.125a222.69 222.69 0 0 1 22.638-8.751v-83.699a8 8 0 0 1 8-8h45.092a8 8 0 0 1 8 8v72.856c2.973-.115 5.953-.189 8.944-.189 4.588 0 9.151.153 13.692.423V119.16a8 8 0 0 1 8-8h45.092a8 8 0 0 1 8 8v132.632a222.56 222.56 0 0 1 22.636 9.349V76.585a8 8 0 0 1 8-8h45.092a8 8 0 0 1 8 8v221.733c0 1.676-.517 3.23-1.397 4.515.833.808 1.67 1.61 2.492 2.432 42.632 42.632 66.111 99.315 66.111 159.607zM369.42 269.628a225.517 225.517 0 0 1 29.092 20.18V84.585H369.42zm-16 9.565c-26.905-14.174-57.247-22.659-89.42-23.872v65.221a143.497 143.497 0 0 1 57.227 15.355l32.193-55.76zM248 255.321c-32.339 1.22-62.832 9.782-89.84 24.089l32.613 56.487A143.497 143.497 0 0 1 248 320.542zm37.692-14.229a224.951 224.951 0 0 1 29.092 5.766V127.16h-29.092zm-83.728 4.545a225.65 225.65 0 0 1 29.092-5.113v-66.037h-29.092zm-83.73 40.403a224.76 224.76 0 0 1 29.092-19.102v-47.126h-29.092zm8.789 113.605-56.472-32.604c-14.307 27.01-22.897 57.491-24.118 89.831h65.229a143.515 143.515 0 0 1 15.361-57.227zm49.906-55.728-32.606-56.475a211.378 211.378 0 0 0-65.751 65.755l56.468 32.602a145.716 145.716 0 0 1 41.889-41.882zm200.032 41.881 56.467-32.602a211.388 211.388 0 0 0-65.751-65.755l-32.606 56.475a145.757 145.757 0 0 1 41.89 41.882zm88.606 71.074c-1.221-32.34-9.812-62.822-24.118-89.831l-56.472 32.604a143.519 143.519 0 0 1 15.361 57.227zm-136.105-65.461a8 8 0 0 1 0 11.313l-40.736 40.736a38.89 38.89 0 0 1 6.402 21.411C295.128 486.447 277.575 504 256 504c-21.576 0-39.129-17.553-39.129-39.128s17.553-39.128 39.129-39.128a38.893 38.893 0 0 1 21.412 6.403l40.736-40.735a7.999 7.999 0 0 1 11.314-.001zm-50.334 73.461c0-12.753-10.375-23.128-23.128-23.128s-23.129 10.375-23.129 23.128S243.247 488 256 488s23.128-10.375 23.128-23.128z" fill="#b4b4b4" opacity="1" data-original="#000000"></path></g></svg>