<svg xmlns="http://www.w3.org/2000/svg" version="1.1" xmlns:xlink="http://www.w3.org/1999/xlink" width="512" height="512" x="0" y="0" viewBox="0 0 512 512" style="enable-background:new 0 0 512 512" xml:space="preserve" class=""><g><path d="M251.8 450.4a194.581 194.581 0 0 1-46.007-5.546A193.593 193.593 0 0 1 58.107 262.072a194.508 194.508 0 0 1 3.41-41.678 15.058 15.058 0 0 1 29.577 5.67 163.054 163.054 0 0 0 20.92 115.746 163.189 163.189 0 0 0 224.362 54.551c76.892-46.872 101.344-147.613 54.506-224.568a163.185 163.185 0 0 0-224.361-54.551 15.058 15.058 0 1 1-15.676-25.714 193.3 193.3 0 0 1 265.763 64.607c55.466 91.131 26.5 210.432-64.557 265.94A192.088 192.088 0 0 1 251.8 450.4z" fill="#b4b4b4" opacity="1" data-original="#000000" class=""></path><path d="M250.921 507.6A251.648 251.648 0 0 1 43.639 114.426a251.383 251.383 0 0 1 289.772-96.313 252.44 252.44 0 0 1 49.127 23.207 15.058 15.058 0 0 1-15.721 25.687 220.453 220.453 0 0 0-156.671-28.591C90.286 61.209 11.3 177.348 34.078 297.309A221.271 221.271 0 0 0 292.751 473.52C412.61 450.727 491.6 334.588 468.819 214.628a15.057 15.057 0 0 1 29.586-5.618 251.55 251.55 0 0 1-200.028 294.1 254.071 254.071 0 0 1-47.456 4.49z" fill="#b4b4b4" opacity="1" data-original="#000000" class=""></path><path d="M251.448 334.426 161 243.908a15.057 15.057 0 1 1 21.3-21.287l69.144 69.2L353.983 189.2a15.058 15.058 0 0 1 21.3 21.287zM424.962 138.526a14.992 14.992 0 0 1 .007-21.3L486.3 55.951a15.058 15.058 0 1 1 21.287 21.3l-61.329 61.28c-6.258 5.913-16.258 4.913-21.296-.005z" fill="#b4b4b4" opacity="1" data-original="#000000" class=""></path></g></svg>