<svg xmlns="http://www.w3.org/2000/svg" version="1.1" xmlns:xlink="http://www.w3.org/1999/xlink" width="512" height="512" x="0" y="0" viewBox="0 0 512.002 512.002" style="enable-background:new 0 0 512 512" xml:space="preserve" class=""><g><path d="M256.001 92.002c82.842 0 150 67.157 150 150 0 57.559-32.425 107.535-80 132.686v27.313c0 11.001-9 20-20 20h-100c-11 0-20-9-20-20v-27.313c-47.575-25.151-80-75.128-80-132.686 0-82.843 67.157-150 150-150zM306.001 427.002v55l-20 20h-60l-20-20v-55M211.001 462.002h90M256.001 42.002V10M156.001 68.797 140 41.083M82.796 142.002l-27.714-16.001M56.001 242.002H23.999M82.796 342.002l-27.714 16.001M429.206 342.002l27.714 16.001M456.001 242.002h32.002M429.206 142.002l27.714-16.001M356.001 68.797l16.001-27.714" style="fill-rule:evenodd;clip-rule:evenodd;stroke-width:20.0001;stroke-linecap:round;stroke-linejoin:round;stroke-miterlimit:22.9256;" fill-rule="evenodd" clip-rule="evenodd" fill="none" stroke="#b4b4b4" stroke-width="20.0001" stroke-linecap="round" stroke-linejoin="round" stroke-miterlimit="22.9256" data-original="#000000" opacity="1"></path><path d="m307.219 237.002-20.121 53.048h-62.194l-20.121-53.048 51.218-80.486zM256.001 237.002v-73.169M224.904 290.05l3.277 128.205m55.615.992 3.302-129.197M283.236 377.002h-54.47" style="fill-rule:evenodd;clip-rule:evenodd;stroke-width:20.0001;stroke-linecap:round;stroke-linejoin:round;stroke-miterlimit:22.9256;" fill-rule="evenodd" clip-rule="evenodd" fill="none" stroke="#b4b4b4" stroke-width="20.0001" stroke-linecap="round" stroke-linejoin="round" stroke-miterlimit="22.9256" data-original="#000000" opacity="1"></path><path d="M256.008 242.002h-.007" style="fill-rule:evenodd;clip-rule:evenodd;stroke-width:29.9999;stroke-linecap:round;stroke-linejoin:round;stroke-miterlimit:22.9256;" fill-rule="evenodd" clip-rule="evenodd" fill="none" stroke="#b4b4b4" stroke-width="29.9999" stroke-linecap="round" stroke-linejoin="round" stroke-miterlimit="22.9256" data-original="#000000" opacity="1"></path></g></svg>